<svg xmlns="http://www.w3.org/2000/svg" viewBox="0 0 48 48">
  <defs>
    <linearGradient id="grad" x1="0%" y1="0%" x2="100%" y2="100%">
      <stop offset="0%" stop-color="#1976d2" />
      <stop offset="100%" stop-color="#42a5f5" />
    </linearGradient>
  </defs>
  <circle cx="24" cy="24" r="22" fill="url(#grad)" />
  <path
    fill="#fff"
    d="M36.8 22.3c.7-.3.7-1.3 0-1.6l-13-5.1a1 1 0 0 0-1.3.6l-1.4 4.3-7.8-3a1 1 0 0 0-1.2.4l-1 1.7a1 1 0 0 0 .5 1.4l7.3 2.8-2.4 7.2-3.6-1.3a1 1 0 0 0-1.2.4l-.8 1.3a1 1 0 0 0 .5 1.4l6.3 2.4c.5.2 1.1-.1 1.3-.6l3-8.8 10.8 4.2c.7.3 1.3-.5.9-1.1l-5.6-8.6 8.7-3.4Z"
  />
</svg>
